<svg width="250" height="251" viewBox="0 0 250 251" fill="none" xmlns="http://www.w3.org/2000/svg">
<path d="M111.56 0.420381C111.417 0.67846 110.486 0.715328 109.089 0.567855C107.548 0.420381 106.725 0.45725 106.581 0.752196C106.438 0.973406 105.901 1.15775 105.364 1.15775C104.038 1.19462 102.068 2.11632 102.785 2.3744C104.289 2.89056 107.477 3.36985 107.835 3.14864C108.122 2.9643 108.157 3.03803 108.014 3.33298C107.799 3.62793 107.226 3.70166 106.223 3.55419C105.149 3.40672 104.898 3.44359 105.292 3.70166C105.578 3.92287 106.187 4.10722 106.617 4.10722C107.19 4.10722 107.334 4.29156 107.19 4.84458C107.083 5.32387 106.689 5.58195 106.152 5.58195C105.722 5.58195 105.256 5.72942 105.113 5.95063C105.005 6.13497 104.719 6.20871 104.468 6.13497C104.217 6.02437 103.608 6.06124 103.071 6.24558C102.534 6.39305 107.763 6.50366 114.712 6.50366C127.965 6.50366 130.365 6.688 138.424 8.34707C143.152 9.34252 150.603 11.4809 151.713 12.1814C152.25 12.5132 152 12.5501 150.245 12.4026C149.063 12.2551 147.701 12.0339 147.2 11.8496C144.406 10.891 130.508 10.596 124.813 11.4071C118.831 12.2183 116.933 12.5869 114.784 13.1768C113.602 13.4718 112.062 13.8405 111.381 13.9511C110.701 14.0617 109.984 14.2829 109.769 14.4304C109.59 14.6147 108.659 14.8359 107.728 14.9834C105.829 15.2783 105.758 15.3521 106.617 16.3475C107.441 17.3061 106.689 18.1541 105.65 17.4536C105.256 17.2323 104.576 17.0111 104.146 17.0111C103.179 17.0111 103.573 17.4904 104.683 17.5642C105.113 17.6379 105.435 17.8591 105.364 18.0803C105.328 18.3015 105.543 18.4859 105.829 18.4859C106.259 18.4859 106.366 19.0389 106.366 21.3985C106.366 23.3156 106.51 24.3848 106.796 24.4585C107.047 24.5691 107.119 24.8641 106.94 25.3434C106.653 26.007 106.617 26.007 106.259 25.1959C105.901 24.3479 105.184 24.053 105.471 24.8272C105.865 26.0439 105.972 28.0716 105.65 28.0716C105.435 28.0716 105.292 28.256 105.292 28.4772C105.292 28.6615 105.507 28.7353 105.758 28.5878C106.116 28.3666 106.116 28.4403 105.758 28.8459C105.077 29.5832 105.184 30.5049 106.116 31.1686L106.904 31.7216L105.901 32.5327L104.934 33.3069L105.829 34.0443C106.868 34.8923 106.975 35.8509 106.08 36.4408C105.113 37.0306 103.501 36.6251 103.501 35.7403C103.501 35.3347 103.322 35.0766 103.071 35.1504C102.82 35.261 102.605 35.5559 102.605 35.8509C102.605 36.1458 102.462 36.4776 102.247 36.6251C102.068 36.7726 102.426 36.92 103.071 36.92C104.611 36.92 104.54 37.5468 102.999 37.7311C102.319 37.8049 101.853 37.7311 101.925 37.5837C102.032 37.4362 101.746 37.2887 101.28 37.2887C100.671 37.2887 100.6 37.3993 100.958 37.6205C101.495 37.9892 101.209 38.7635 100.528 38.7635C100.098 38.7635 96.0148 40.3857 94.8328 41.0124C94.4746 41.1968 93.9015 41.3442 93.5433 41.3442C93.1851 41.3442 92.7911 41.4548 92.6478 41.5655C92.5404 41.7129 91.3942 42.1553 90.1405 42.6346C88.8511 43.0771 87.1317 43.7776 86.2721 44.1462C83.3349 45.4735 74.3086 50.2295 73.7355 50.7825C73.4489 51.0775 72.9833 51.2987 72.7684 51.2987C72.5177 51.2987 72.3386 51.4462 72.3386 51.6674C72.3386 51.8517 72.1237 52.0361 71.8371 52.0361C71.5506 52.0361 71.264 52.1467 71.1924 52.331C71.1565 52.4785 70.1894 53.2527 69.1149 54.0638C68.0403 54.8381 65.8195 56.8658 64.1719 58.5618C62.56 60.2577 60.984 61.6218 60.6616 61.6218C60.0169 61.6218 54.8232 63.7602 54.1784 64.3132C53.9277 64.4976 52.9606 64.6819 52.0651 64.7188C50.7756 64.7556 50.2742 64.94 49.9876 65.493C49.7727 65.8986 49.1638 66.9309 48.6265 67.8157C48.0534 68.7005 47.6236 69.5485 47.6236 69.7329C47.6236 69.8803 47.4803 70.1015 47.337 70.1753C46.549 70.5071 41.1762 79.7611 41.1762 80.7934C41.1762 81.0146 41.6776 81.9363 42.2866 82.858L43.3611 84.4802L42.4298 87.3559C41.8925 88.9044 41.2478 91.1165 40.9613 92.2226C40.6747 93.3286 40.3165 94.5821 40.1374 94.9877C39.9225 95.3932 39.636 96.6468 39.421 97.7528C39.242 98.8589 38.8479 101.108 38.5614 102.73C37.451 108.85 37.1286 115.118 37.3794 124.556C37.5227 129.57 37.7376 134.437 37.8808 135.359L38.1316 137.018L39.5643 136.907C40.3523 136.87 41.5344 136.981 42.2149 137.202C42.8955 137.386 43.5044 137.497 43.576 137.46C43.6477 137.386 43.4328 134.289 43.1462 130.529C42.5015 122.455 42.4657 119.689 42.9671 113.606C43.6477 105.79 44.7581 98.6745 45.9759 94.4347C46.3341 93.3286 46.6923 92.0013 46.7639 91.4852C46.8714 90.969 47.4445 89.1993 48.0534 87.5403L49.128 84.5171L48.0176 83.1161C47.4087 82.3418 46.9072 81.3464 46.9072 80.8671C46.9072 79.7611 48.4116 76.9959 52.3875 70.8389C54.1426 68.1107 55.7186 65.493 55.8977 65.0137C56.1484 64.3132 56.3992 64.2026 57.5454 64.4238C58.799 64.6082 61.5929 63.6496 64.5301 61.9905C64.8882 61.7693 65.4972 61.6218 65.927 61.6218C66.4285 61.6218 67.9328 60.442 69.9745 58.3774C73.0549 55.2805 77.6039 51.7411 80.756 49.8977C83.9439 48.0543 91.6807 44.3306 94.7253 43.1877C100.635 40.9756 101.495 40.6806 104.755 39.5746C106.546 38.9478 108.802 38.1367 109.769 37.7311C110.772 37.2887 113.566 36.1458 116.002 35.1135C122.915 32.2009 124.634 32.0165 129.291 33.6019C129.792 33.7494 131.153 34.1918 132.335 34.5236C136.06 35.6296 136.598 35.7771 138.783 36.5882C139.965 36.9938 141.433 37.4731 142.006 37.6574C142.615 37.8049 144.048 38.2842 145.23 38.6897C146.412 39.0584 148.346 39.6852 149.528 40.0538C163.498 44.22 172.739 48.3492 179.222 53.2896C182.087 55.4648 186.278 59.7415 187.389 61.6587C187.783 62.3592 188.248 62.986 188.392 63.0966C188.821 63.3915 192.081 70.5808 192.511 72.203C192.797 73.1985 193.621 73.3828 198.6 73.346C203.328 73.346 205.083 72.9035 209.632 70.6914C211.566 69.7697 213.286 68.9955 213.465 68.9955C213.68 68.9955 214.11 68.848 214.468 68.6268C215.829 67.8894 219.267 67.1521 221.596 67.1521H224.031L225.213 64.7556C227.506 60.184 227.398 55.133 224.963 51.8148C224.64 51.3724 224.139 50.6351 223.852 50.1558C222.061 47.3538 211.495 35.9983 206.659 31.7216C202.146 27.7398 193.514 21.3247 189.108 18.7439C184.38 15.942 179.652 13.7299 177.933 13.5455C175.389 13.2137 170.912 12.2183 167.079 11.1122C165.36 10.6329 147.809 4.80771 147.021 4.4759C146.627 4.29156 145.982 4.07035 145.588 3.99661C145.194 3.88601 143.976 3.51732 142.902 3.18551C138.783 1.96885 132.872 0.825933 128.753 0.420381C123.954 -0.0220389 111.811 -0.0220389 111.56 0.420381ZM108.157 1.52643C108.157 1.71077 108.086 1.89511 108.014 1.89511C107.907 1.89511 107.728 1.71077 107.62 1.52643C107.513 1.30522 107.584 1.15775 107.763 1.15775C107.978 1.15775 108.157 1.30522 108.157 1.52643ZM105.041 2.15319C104.79 2.22693 104.361 2.22693 104.146 2.15319C103.895 2.04259 104.074 1.96885 104.576 1.96885C105.077 1.96885 105.256 2.04259 105.041 2.15319ZM109.59 5.58195C109.59 5.76629 109.447 5.95063 109.232 5.95063C109.053 5.95063 108.874 5.76629 108.874 5.58195C108.874 5.36074 109.053 5.21327 109.232 5.21327C109.447 5.21327 109.59 5.36074 109.59 5.58195ZM109.877 15.3521C109.519 15.7207 108.122 15.8682 108.337 15.4995C108.48 15.3152 108.91 15.1677 109.304 15.1677C109.733 15.1677 109.984 15.2415 109.877 15.3521ZM107.334 26.7812C107.334 27.0762 107.119 27.3343 106.868 27.3343C106.581 27.3343 106.474 27.1131 106.581 26.7812C106.725 26.4863 106.904 26.2282 107.047 26.2282C107.19 26.2282 107.334 26.4863 107.334 26.7812ZM109.339 27.1499C109.483 27.4449 109.411 27.7767 109.232 27.8873C109.017 28.0348 108.874 28.0348 108.874 27.9242C108.874 27.8504 108.766 27.5186 108.659 27.1868C108.551 26.855 108.587 26.5969 108.802 26.5969C108.981 26.5969 109.232 26.855 109.339 27.1499ZM108.516 30.8736C108.516 31.1686 108.372 31.3161 108.157 31.2054C107.978 31.0948 107.799 30.8368 107.799 30.6156C107.799 30.4312 107.978 30.2837 108.157 30.2837C108.372 30.2837 108.516 30.5418 108.516 30.8736ZM109.232 32.8645C109.232 33.012 109.017 33.2332 108.731 33.3438C108.372 33.4913 108.301 33.3438 108.408 32.8277C108.587 32.164 109.232 32.164 109.232 32.8645Z" fill="#A4C050"/>
<path d="M99.74 2.2638C99.2027 2.48501 99.4176 2.55874 100.528 2.52188C101.388 2.48501 101.853 2.33753 101.603 2.19006C101.065 1.85825 100.671 1.85825 99.74 2.2638Z" fill="#91B722"/>
<path d="M96.8028 3.00117C95.6566 3.48046 95.7999 3.62793 97.2327 3.44359C97.9132 3.36986 98.4863 3.14865 98.4863 2.9643C98.4863 2.55875 97.8416 2.55875 96.8028 3.00117Z" fill="#91B722"/>
<path d="M92.9344 3.36986C92.6837 3.81228 93.006 3.81228 94.009 3.36986C94.6895 3.07491 94.6895 3.03805 93.9373 3.03805C93.5075 3.00118 93.0419 3.14865 92.9344 3.36986Z" fill="#91B722"/>
<path d="M100.564 3.25925C100.815 3.36986 101.137 3.33299 101.244 3.22238C101.388 3.11178 101.173 3.00117 100.779 3.03804C100.385 3.03804 100.277 3.14865 100.564 3.25925Z" fill="#91B722"/>
<path d="M98.4863 4.47591C98.4863 4.66025 98.6654 4.84459 98.8803 4.84459C99.0594 4.84459 99.1311 4.66025 99.0236 4.47591C98.9162 4.2547 98.7371 4.10722 98.6296 4.10722C98.558 4.10722 98.4863 4.2547 98.4863 4.47591Z" fill="#91B722"/>
<path d="M105.471 4.84459C105.578 5.02893 105.937 5.21327 106.223 5.21327C106.51 5.21327 106.725 5.02893 106.725 4.84459C106.725 4.62338 106.402 4.47591 105.972 4.47591C105.578 4.47591 105.364 4.62338 105.471 4.84459Z" fill="#91B722"/>
<path d="M100.456 6.688C100.349 6.87234 100.492 7.05669 100.779 7.05669C101.101 7.05669 101.352 6.87234 101.352 6.688C101.352 6.46679 101.209 6.31932 101.029 6.31932C100.815 6.31932 100.564 6.46679 100.456 6.688Z" fill="#91B722"/>
<path d="M104.217 16.2738C104.217 16.4581 104.396 16.6425 104.576 16.6425C104.79 16.6425 104.934 16.4581 104.934 16.2738C104.934 16.0526 104.79 15.9051 104.576 15.9051C104.396 15.9051 104.217 16.0526 104.217 16.2738Z" fill="#91B722"/>
<path d="M101.71 17.3798C101.71 17.5642 101.889 17.7485 102.104 17.7485C102.283 17.7485 102.355 17.5642 102.247 17.3798C102.14 17.1586 101.961 17.0111 101.853 17.0111C101.782 17.0111 101.71 17.1586 101.71 17.3798Z" fill="#91B722"/>
<path d="M103.859 18.4859C103.573 18.6702 102.999 18.8914 102.605 19.0389C101.925 19.2601 101.925 19.297 102.534 19.7394C102.856 19.9975 103.143 20.5136 103.143 20.8454C103.143 21.1773 103.429 21.4353 103.859 21.4353C104.683 21.4353 104.79 21.0666 104.146 20.3662C103.752 19.9975 103.787 19.8131 104.217 19.4813C105.292 18.5965 105.005 17.7854 103.859 18.4859Z" fill="#91B722"/>
<path d="M95.5492 19.4813C95.7999 19.5919 96.1223 19.5551 96.2297 19.4445C96.373 19.3339 96.1581 19.2232 95.7641 19.2601C95.3701 19.2601 95.2626 19.3707 95.5492 19.4813Z" fill="#91B722"/>
<path d="M99.3102 21.3247C99.6325 21.3985 100.134 21.3985 100.385 21.3247C100.6 21.2141 100.349 21.1404 99.74 21.1404C99.1669 21.1404 98.952 21.2141 99.3102 21.3247Z" fill="#91B722"/>
<path d="M103.501 23.2788C103.214 23.4631 103.143 23.6474 103.322 23.6474C103.537 23.6474 103.931 23.4631 104.217 23.2788C104.504 23.0944 104.611 22.9101 104.396 22.9101C104.217 22.9101 103.787 23.0944 103.501 23.2788Z" fill="#91B722"/>
<path d="M102.964 33.6019C103.071 33.7862 103.25 33.9706 103.358 33.9706C103.429 33.9706 103.501 33.7862 103.501 33.6019C103.501 33.3807 103.322 33.2332 103.107 33.2332C102.928 33.2332 102.856 33.3807 102.964 33.6019Z" fill="#91B722"/>
<path d="M104.611 34.5605C104.611 34.966 104.719 35.0766 104.826 34.7817C104.934 34.5236 104.898 34.1918 104.79 34.0812C104.683 33.9337 104.576 34.1549 104.611 34.5605Z" fill="#91B722"/>
<path d="M230.264 72.1662C227.971 72.8667 225.321 74.7838 224.175 76.5535C222.061 79.761 222.169 82.9686 224.676 90.0104C225.357 91.9276 226.503 95.3195 227.219 97.5684C227.971 99.7805 228.688 101.956 228.867 102.361C229.01 102.767 229.619 104.389 230.156 105.938C231.303 109.108 233.129 111.652 235.458 113.164C236.711 113.975 237.32 114.122 239.613 114.122C245.917 114.085 250 110.214 250 104.205C250 101.44 249.57 99.8174 246.418 90.7478C245.594 88.4251 244.448 84.9963 243.875 83.1898C241.547 76.0373 239.541 73.2353 235.887 72.1293C233.738 71.4657 232.413 71.4657 230.264 72.1662ZM233.488 79.6873C234.276 80.0929 235.064 82.1575 238.86 93.3286C242.586 104.389 242.657 104.647 241.977 105.679C241.583 106.306 241.081 106.601 240.329 106.601C238.681 106.601 238.681 106.601 234.24 93.3286C233.667 91.5958 232.556 88.2776 231.768 85.9549C230.944 83.6322 230.3 81.5307 230.3 81.2726C230.3 80.609 231.625 79.3186 232.306 79.3186C232.592 79.3186 233.129 79.4661 233.488 79.6873Z" fill="black" fill-opacity="0.63"/>
<path d="M205.262 82.0469C202.218 83.0792 199.675 84.1484 199.603 84.3696C199.424 84.9226 199.782 86.1393 201.967 92.5912C203.006 95.5407 204.152 98.9326 204.546 100.149C206.122 104.942 208.88 113.09 209.167 113.791C209.346 114.196 210.134 116.519 210.957 118.915C211.745 121.349 212.498 123.413 212.569 123.487C212.641 123.598 214.289 123.118 216.151 122.418C219.626 121.201 219.626 121.201 219.447 120.095C219.375 119.468 218.444 116.556 217.405 113.606C215.005 106.749 214.683 105.569 215.184 105.053C215.542 104.684 216.294 105.827 221.667 114.675C222.742 116.408 223.816 118.215 224.067 118.657L224.569 119.468L227.506 118.325C229.153 117.699 230.837 117.109 231.303 116.998C231.768 116.924 232.055 116.629 231.947 116.371C231.876 116.113 229.941 113.016 227.721 109.514C221.381 99.5594 221.882 100.629 222.563 98.6008C223.422 96.0569 223.279 93.4392 222.097 89.863C219.876 82.9686 216.975 80.056 212.39 80.0929C211.423 80.0929 208.593 80.8671 205.262 82.0469ZM212.748 88.6463C213.572 89.31 214.79 92.1857 215.077 94.1028C215.363 96.0937 214.575 97.3473 212.963 97.4947C212.104 97.5685 211.889 97.3841 211.602 96.4624C211.423 95.8357 211.137 95.0245 210.957 94.619C210.778 94.2134 210.277 92.8124 209.847 91.5221C209.095 89.2362 209.095 89.1256 209.74 88.6463C210.528 88.0564 212.032 88.0564 212.748 88.6463Z" fill="black" fill-opacity="0.63"/>
<path d="M192.153 86.7292C190.003 87.5034 186.529 88.7569 184.452 89.4943C182.374 90.2317 180.583 90.9322 180.404 91.0796C180.261 91.2271 180.87 93.5129 181.765 96.1306C182.661 98.7482 183.986 102.619 184.702 104.758C185.419 106.896 186.457 109.956 187.031 111.578C187.604 113.201 188.463 115.781 188.965 117.293C190.612 122.27 192.726 128.501 193.12 129.57C193.37 130.271 193.693 130.566 194.087 130.418C194.409 130.344 196.666 129.496 199.137 128.612C201.609 127.727 204.904 126.51 206.48 125.957C208.056 125.367 209.453 124.814 209.632 124.667C209.775 124.556 209.346 122.86 208.665 120.943C207.268 116.961 207.77 117.109 202.683 118.989C198.958 120.353 198.063 120.501 198.063 119.8C198.063 119.358 196.523 114.897 195.878 113.422C195.699 113.016 195.52 112.279 195.484 111.8C195.376 110.952 195.627 110.767 198.421 109.809C200.104 109.219 201.501 108.703 201.573 108.666C201.68 108.518 199.46 102.03 199.209 101.735C199.066 101.624 197.597 101.993 195.914 102.583C194.266 103.172 192.797 103.504 192.654 103.357C192.332 103.025 190.183 96.6467 190.183 96.0568C190.183 95.6144 191.687 94.9508 196.379 93.3286C197.705 92.8493 198.779 92.2963 198.779 92.0751C198.779 91.3008 196.666 85.4019 196.379 85.3282C196.236 85.2913 194.338 85.9181 192.153 86.7292Z" fill="black" fill-opacity="0.63"/>
<path d="M170.303 94.6559C168.476 95.172 159.88 98.269 159.486 98.5639C159.199 98.822 159.557 100.297 160.847 104.131C161.85 107.007 163.032 110.509 163.498 111.947C164.644 115.376 168.584 126.989 170.625 132.925C171.521 135.543 172.309 137.755 172.416 137.866C172.81 138.234 179.258 135.764 179.365 135.211C179.437 134.879 178.756 132.409 177.825 129.718C174.315 119.395 174.601 120.537 175.354 119.984C175.712 119.726 176.213 119.505 176.464 119.505C177.288 119.505 179.58 118.141 180.762 116.924C183.735 113.901 183.735 107.634 180.762 100.923C179.723 98.6008 177.682 96.1675 176.106 95.3564C174.924 94.7296 171.521 94.3609 170.303 94.6559ZM172.954 103.615C173.813 104.832 174.315 106.085 174.995 108.629C175.389 110.177 175.389 110.583 174.96 111.247C174.53 111.947 172.381 113.164 172.13 112.832C171.915 112.537 169.049 103.762 169.049 103.357C169.049 102.988 169.909 102.693 171.449 102.583C171.915 102.583 172.488 102.951 172.954 103.615Z" fill="black" fill-opacity="0.63"/>
<path d="M145.839 102.767C141.648 104.905 139.212 110.141 140.394 114.602C141.72 119.579 143.976 121.975 150.925 125.625C158.662 129.681 160.56 131.561 159.665 134.326C159.271 135.432 157.623 136.28 156.549 135.912C155.832 135.69 154.722 134.326 153.791 132.593C153.182 131.45 152.609 131.524 149.564 133.183C146.913 134.621 146.77 134.769 146.985 135.764C147.307 137.423 149.528 140.741 151.104 141.921C151.892 142.511 153.54 143.285 154.722 143.617C157.158 144.318 159.199 144.096 162.065 142.732C169.694 139.156 169.372 127.469 161.492 122.27C160.775 121.791 158.196 120.353 155.761 119.1C153.11 117.699 150.639 116.113 149.636 115.155C148.131 113.68 147.916 113.311 147.916 111.984C147.916 110.177 148.382 109.551 149.743 109.551C150.782 109.551 152.573 111.357 152.573 112.353C152.573 112.648 152.823 112.979 153.11 113.09C153.791 113.385 159.737 110.251 159.737 109.624C159.737 108.887 158.698 106.933 157.372 105.237C154.686 101.845 149.707 100.776 145.839 102.767Z" fill="black" fill-opacity="0.63"/>
<path d="M131.081 108.666C128.61 109.551 125.1 110.804 123.273 111.431C121.446 112.095 119.87 112.721 119.799 112.869C119.727 112.979 120.3 115.007 121.088 117.33C121.876 119.653 122.915 122.676 123.345 124.114C123.81 125.515 124.777 128.354 125.458 130.381C127.607 136.575 131.475 147.967 132.084 149.885C132.371 150.843 132.872 151.728 133.123 151.839C133.41 151.949 134.628 151.691 135.845 151.286C141.648 149.295 148.848 146.677 149.063 146.456C149.349 146.198 147.272 139.709 146.77 139.377C146.591 139.267 144.585 139.82 142.293 140.631C139.75 141.516 138.066 141.958 137.851 141.737C137.421 141.294 134.95 134.326 134.878 133.368C134.842 132.888 135.236 132.557 136.275 132.188C140.538 130.676 140.753 130.566 140.753 129.496C140.753 128.943 140.609 128.354 140.466 128.132C140.323 127.948 139.893 126.879 139.535 125.773C139.141 124.667 138.747 123.634 138.639 123.524C138.532 123.376 137.529 123.598 136.454 124.003C133.051 125.22 132.622 125.33 132.263 125.072C131.905 124.851 129.649 118.547 129.649 117.772C129.649 117.33 131.655 116.482 135.917 115.044C137.206 114.639 138.245 114.085 138.245 113.864C138.245 112.979 136.275 107.339 135.917 107.228C135.738 107.154 133.553 107.818 131.081 108.666Z" fill="black" fill-opacity="0.63"/>
<path d="M103.501 118.547C102.211 119.026 98.7729 120.279 95.7999 121.349C92.8628 122.381 90.3196 123.376 90.1763 123.524C90.0331 123.671 90.3913 125.183 91.0002 126.879C91.6091 128.612 92.4687 131.156 92.9344 132.593C93.4 133.994 94.6179 137.571 95.6208 140.52C96.6237 143.47 97.8416 147.046 98.3072 148.447C98.7729 149.885 99.3818 151.691 99.6683 152.502C99.9549 153.313 100.886 155.968 101.71 158.401C102.534 160.835 103.25 162.862 103.286 162.899C103.322 162.973 104.97 162.42 106.94 161.683C108.874 160.982 112.456 159.692 114.856 158.844C117.291 157.996 119.297 157.148 119.405 156.926C119.512 156.595 117.614 150.253 117.291 149.811C117.22 149.737 115.214 150.401 112.814 151.249C110.235 152.17 108.336 152.65 108.157 152.465C107.692 151.986 104.934 143.764 105.149 143.433C105.22 143.285 106.653 142.732 108.336 142.179C110.02 141.626 111.381 141.073 111.381 140.962C111.345 140.409 109.232 134.474 108.945 134.179C108.766 133.994 107.548 134.326 106.152 134.842C102.319 136.317 102.534 136.428 101.101 132.262C100.421 130.271 99.9549 128.427 100.027 128.206C100.134 127.985 102.068 127.174 104.361 126.363C107.369 125.33 108.516 124.777 108.516 124.335C108.48 123.413 106.51 117.883 106.152 117.809C105.972 117.735 104.79 118.104 103.501 118.547Z" fill="black" fill-opacity="0.63"/>
<path d="M86.3079 124.74C85.2333 125.146 81.4365 126.547 77.8905 127.8C74.3444 129.091 71.0849 130.271 70.6551 130.418L69.9029 130.75L70.9774 134.068C72.1236 137.718 72.4102 138.16 73.1266 137.718C73.8071 137.276 77.0666 136.133 77.7114 136.096C78.1054 136.096 78.571 137.054 79.2158 138.935C79.7531 140.52 80.7202 143.47 81.4365 145.497C85.3408 157.037 86.8094 161.351 87.8481 164.411L88.9585 167.876L90.0689 167.655C91.0002 167.471 95.9432 165.664 96.2655 165.406C96.4088 165.259 91.6449 150.733 90.9644 149.184C90.7853 148.779 90.3196 147.451 89.9256 146.235C89.5316 145.018 88.4212 141.626 87.4183 138.677C86.4512 135.727 85.7348 133.22 85.8781 133.11C86.0214 132.962 87.0601 132.593 88.1705 132.225C91.5016 131.156 91.4658 131.266 90.1763 127.321C89.5316 125.478 88.851 123.929 88.672 123.966C88.457 123.966 87.3825 124.335 86.3079 124.74Z" fill="black" fill-opacity="0.63"/>
<path d="M238.18 124.888C236.21 125.92 234.526 126.658 232.628 127.247C231.84 127.506 230.873 127.837 230.479 127.985C229.189 128.464 224.784 129.46 223.96 129.46C223.53 129.46 223.064 129.607 222.957 129.828C222.849 130.013 222.312 130.197 221.811 130.197C220.664 130.197 217.799 130.934 213.071 132.483L209.632 133.589L209.381 138.419C209.202 142.658 208.701 145.977 208.02 147.894C207.913 148.189 207.483 149.848 207.089 151.581C206.695 153.313 206.086 155.636 205.764 156.742C205.37 158.069 205.119 160.871 204.976 165.038C204.832 170.162 204.653 171.489 204.152 172.227C203.328 173.48 201.286 177.941 201.286 178.531C201.251 179.269 200.642 179.969 198.707 181.444C197.776 182.144 196.916 183.029 196.809 183.361C196.666 183.73 196.451 184.025 196.272 184.025C196.093 184.025 195.914 184.578 195.842 185.205C195.734 186.384 195.734 186.421 192.511 187.048C188.893 187.785 185.275 189.481 182.302 191.767C180.619 193.094 175.676 197.408 175.139 198.035C175.031 198.145 174.386 198.625 173.706 199.067C172.99 199.473 172.058 200.136 171.628 200.505C171.199 200.874 170.052 201.758 169.085 202.459C168.082 203.159 167.366 203.786 167.438 203.86C167.653 204.081 169.229 203.123 169.515 202.569C169.658 202.311 170.303 201.832 170.948 201.537C172.99 200.505 174.207 199.767 174.924 199.104C175.318 198.698 175.676 198.477 175.748 198.551C175.998 198.772 174.064 200.615 173.598 200.615C173.348 200.615 172.882 201.058 172.524 201.537C171.915 202.422 171.915 202.459 172.631 202.459C173.025 202.459 173.348 202.275 173.348 202.09C173.348 201.869 173.527 201.722 173.742 201.722C173.957 201.722 174.351 201.463 174.673 201.168C174.96 200.837 175.318 200.689 175.425 200.8C175.533 200.91 175.425 201.205 175.21 201.427C174.888 201.758 174.924 202.016 175.389 202.533C175.855 203.086 175.891 203.196 175.461 203.196C175.174 203.196 174.709 202.975 174.494 202.754C174.136 202.385 173.885 202.385 173.348 202.754C172.488 203.307 171.306 203.344 171.019 202.828C170.84 202.533 170.625 202.569 170.267 202.864C169.587 203.454 169.623 203.823 170.446 204.044C170.912 204.155 171.091 204.081 170.948 203.712C170.805 203.344 170.948 203.307 171.628 203.639C172.416 204.044 172.452 204.192 172.416 208.137C172.381 212.561 172.273 213.298 171.593 213.999C171.27 214.33 171.091 214.33 170.84 213.888C170.554 213.409 170.482 213.446 170.482 213.962C170.482 214.441 170.769 214.625 171.449 214.625C172.201 214.625 172.309 214.736 171.987 215.068C171.342 215.731 171.449 216.1 172.273 216.1C172.667 216.1 172.99 216.285 172.99 216.506C172.99 216.69 173.169 216.764 173.348 216.653C173.563 216.543 173.706 216.69 173.706 217.022C173.706 217.427 173.419 217.575 172.703 217.501C172.166 217.464 171.485 217.575 171.234 217.759C170.84 217.98 170.769 217.833 170.912 217.059C171.055 216.395 170.948 216.1 170.625 216.1C170.267 216.1 170.124 216.579 170.124 217.538C170.124 218.607 169.945 219.05 169.515 219.16C169.014 219.308 169.014 219.345 169.623 219.381C170.052 219.381 170.59 219.16 170.84 218.865C171.342 218.239 172.846 218.128 173.169 218.681C173.276 218.865 173.204 219.05 173.025 219.05C172.452 219.05 171.199 220.229 171.413 220.598C171.521 220.746 171.915 220.709 172.309 220.524C172.775 220.266 172.99 220.266 172.99 220.524C172.99 220.709 172.739 220.893 172.452 220.893C172.166 220.893 171.915 221.077 171.915 221.299C171.915 221.594 171.413 221.667 170.303 221.52C169.408 221.372 168.62 221.446 168.512 221.63C168.082 222.331 172.201 222.036 173.527 221.262C174.243 220.856 175.174 220.524 175.64 220.524C176.106 220.524 176.894 220.193 177.395 219.787C177.897 219.381 178.541 219.05 178.864 219.05C179.186 219.05 179.437 218.865 179.437 218.681C179.437 218.46 179.688 218.312 179.974 218.312C180.261 218.312 181.085 217.944 181.837 217.538C182.589 217.096 184.237 216.137 185.526 215.437C189.323 213.298 189.932 212.929 193.263 210.754C196.845 208.358 202.003 204.413 206.014 200.984C212.963 195.048 222.814 183.472 226.109 177.388C227.219 175.361 228.007 174.955 227.685 176.577C227.183 179.158 221.99 189.887 218.121 196.376C216.688 198.735 213.966 202.754 213.501 203.196C213.393 203.307 212.569 204.376 211.674 205.593C207.089 211.86 201.358 217.427 191.078 225.575C189.18 227.087 187.604 228.119 184.093 230.258C181.837 231.585 179.723 232.875 179.437 233.06C179.15 233.244 177.718 233.981 176.321 234.719C174.888 235.419 173.706 236.12 173.706 236.23C173.706 236.341 173.849 236.341 173.992 236.23C174.136 236.157 174.494 236.23 174.78 236.415C175.139 236.673 174.745 236.71 173.527 236.562C172.201 236.378 171.879 236.415 172.273 236.71C172.703 237.041 172.631 237.115 171.843 237.115C171.27 237.115 170.84 237.263 170.84 237.484C170.84 237.668 171.234 237.852 171.736 237.852C172.237 237.852 172.631 238 172.631 238.221C172.631 238.406 173.061 238.59 173.634 238.59C174.745 238.627 174.172 239.069 172.488 239.475C171.664 239.696 171.521 239.622 171.664 239.18C171.807 238.811 171.7 238.59 171.378 238.59C171.091 238.59 170.84 238.848 170.84 239.143C170.84 239.475 170.446 239.917 169.945 240.138C168.906 240.618 168.799 240.986 169.587 241.318C169.909 241.429 170.231 241.281 170.375 240.949C170.482 240.654 170.769 240.47 171.019 240.581C171.27 240.654 171.915 240.507 172.452 240.212C173.742 239.512 174.494 239.548 174.351 240.286C174.243 240.913 171.664 242.019 170.984 241.761C170.769 241.65 169.945 241.982 169.193 242.498C168.405 242.977 167.366 243.383 166.829 243.383C166.256 243.383 165.826 243.567 165.826 243.751C165.826 243.973 165.468 244.046 165.002 243.936C164.572 243.788 163.712 243.899 163.139 244.157C162.53 244.415 161.778 244.563 161.384 244.526C161.026 244.452 160.31 244.599 159.772 244.784C159.271 245.005 156.978 245.337 154.722 245.595C149.636 246.148 145.588 246.959 144.191 247.696C142.794 248.434 138.711 249.65 137.35 249.687C136.633 249.724 136.884 249.835 138.066 250.019C140.144 250.314 147.236 249.613 148.74 248.987C149.313 248.729 149.922 248.544 150.101 248.544C150.28 248.544 150.71 248.397 151.068 248.212C153.361 246.996 155.832 246.406 160.417 245.927C171.055 244.857 174.709 244.157 180.583 241.945C186.923 239.548 193.55 235.972 201.465 230.626C210.205 224.727 215.005 220.561 224.21 210.975C227.076 207.989 230.371 204.634 231.589 203.491C235.422 199.841 237.32 197.002 238.896 192.504C239.147 191.804 239.577 190.698 239.827 190.108C240.078 189.481 240.795 187.748 241.403 186.237C242.012 184.725 242.836 182.771 243.23 181.923C243.588 181.038 243.911 180.117 243.911 179.859C243.911 179.564 244.018 179.232 244.162 179.084C244.412 178.826 244.699 177.941 245.773 173.702C248.281 164.116 249.499 151.802 249.14 139.672C248.925 131.561 248.424 124.409 248.102 124.077C247.994 123.929 246.526 124.519 244.878 125.367C243.23 126.178 241.726 126.879 241.511 126.879C241.009 126.879 240.795 126.215 240.83 124.925C240.902 123.708 240.401 123.708 238.18 124.888ZM179.079 197.076C179.079 197.187 178.935 197.371 178.721 197.482C178.541 197.592 178.362 197.519 178.362 197.334C178.362 197.113 178.541 196.929 178.721 196.929C178.935 196.929 179.079 197.002 179.079 197.076ZM176.464 199.952C176.356 200.247 176.249 200.136 176.249 199.731C176.213 199.325 176.321 199.104 176.428 199.251C176.536 199.362 176.571 199.694 176.464 199.952ZM176.822 237.558C176.715 237.852 176.607 237.742 176.607 237.336C176.571 236.931 176.679 236.71 176.786 236.857C176.894 236.968 176.93 237.299 176.822 237.558Z" fill="#91B722"/>
<path d="M54.8948 136.022C53.462 136.575 52.1367 137.165 51.9576 137.386C51.5995 137.792 52.0293 139.34 55.1455 148.262C57.4737 154.972 57.5096 155.046 57.0081 154.862C56.6141 154.714 51.4204 147.931 47.6594 142.658C46.4415 140.926 45.4028 139.82 45.0088 139.783C44.5073 139.783 39.3136 141.442 38.7763 141.81C38.7047 141.847 39.6001 144.576 43.182 155.083C43.8626 157.111 44.8297 159.913 45.2953 161.351C45.761 162.752 47.0146 166.512 48.0892 169.646C51.3845 179.195 51.9218 180.817 51.9218 180.965C51.9218 181.444 53.4979 181.002 58.6199 179.047C58.9423 178.937 58.5483 177.315 57.2588 173.444C56.2917 170.457 55.3246 167.692 55.1455 167.36C54.9306 166.992 54.7873 166.402 54.7873 166.033C54.7873 165.664 54.6441 165.222 54.465 165.038C54.1068 164.595 53.5695 162.272 53.856 162.272C53.9993 162.272 60.7333 170.973 64.1002 175.508L64.9957 176.725L68.2194 175.619C69.9745 174.992 71.4789 174.328 71.5506 174.107C71.6222 173.886 71.1565 172.264 70.5476 170.494C69.9387 168.687 68.8641 165.591 68.2194 163.563C67.5388 161.535 66.5717 158.622 66.0344 157.111C64.9957 154.088 61.0556 142.4 59.5154 137.829C58.8707 135.912 58.405 134.99 58.011 135.027C57.7245 135.027 56.3275 135.506 54.8948 136.022Z" fill="black" fill-opacity="0.63"/>
<path d="M28.8187 136.686C28.0306 136.981 26.6337 137.313 25.6666 137.386C24.7353 137.497 23.5175 137.792 22.9802 138.087C22.4429 138.345 21.4758 138.714 20.8669 138.861C19.255 139.193 19.0401 139.783 20.5087 139.783H21.7265L21.5833 142.437C21.5116 143.912 21.3683 145.829 21.2609 146.64C21.0818 148.299 20.8669 148.447 17.6432 149.405C16.6044 149.7 16.103 150.069 16.103 150.475C16.103 150.806 16.6761 152.723 17.3925 154.751C18.1088 156.742 18.8252 158.807 18.9685 159.323C19.1476 159.839 20.3296 163.378 21.6549 167.25C22.9444 171.084 24.5204 175.729 25.1293 177.573C27.9232 185.868 32.3289 189.076 38.3465 187.195C43.6118 185.536 46.1908 181.849 45.7252 176.762C45.5461 174.513 45.1879 173.37 41.3553 162.088C40.0658 158.217 38.7405 154.346 38.4539 153.424C37.9525 151.876 37.0928 149.368 35.6242 145.202C35.1586 143.838 34.872 143.47 34.2273 143.47C33.7975 143.47 33.296 143.617 33.0811 143.801C32.902 143.986 31.8274 144.391 30.7171 144.76C27.3143 145.829 27.3859 145.682 28.8187 149.921C34.9079 167.581 37.9883 177.093 37.8808 177.905C37.8092 178.31 37.3435 178.9 36.8063 179.195C36.0182 179.674 35.7317 179.674 34.9437 179.269C34.4422 178.974 33.9408 178.494 33.8333 178.163C33.4751 177.315 29.4634 165.48 28.4605 162.457C27.9948 161.019 26.9561 157.959 26.1322 155.636C23.7324 148.742 23.6249 148.484 23.6249 147.82C23.6249 147.451 24.198 146.972 25.2368 146.566C26.9561 145.903 27.171 145.608 28.6396 141.626C29.0694 140.52 29.6425 139.082 29.9649 138.419C30.2514 137.792 30.4305 137.018 30.3589 136.686C30.2514 136.206 30.0723 136.206 28.8187 136.686Z" fill="black" fill-opacity="0.63"/>
<path d="M32.8304 137.091C30.8962 137.386 30.5021 140.889 32.4005 140.889C32.902 140.889 33.296 140.704 33.296 140.52C33.296 140.299 34.0124 139.598 34.9079 138.972C35.8033 138.308 36.4123 137.681 36.269 137.534C35.8392 137.165 33.9766 136.907 32.8304 137.091Z" fill="#91B722"/>
<path d="M15.8522 140.041C16.1746 140.115 16.6761 140.115 16.9268 140.041C17.1417 139.93 16.891 139.856 16.2821 139.856C15.709 139.856 15.4941 139.93 15.8522 140.041Z" fill="#91B722"/>
<path d="M7.50645 153.055C7.2199 153.203 5.46478 153.866 3.6022 154.493C1.73962 155.12 0.163591 155.71 0.0203158 155.82C-0.12296 156.005 0.485961 160.208 2.02617 169.093C2.2769 170.715 2.67091 172.964 2.85 174.07C3.20819 176.319 4.03203 181.223 4.60513 184.393C4.78422 185.499 5.35732 188.744 5.82297 191.62C6.28861 194.458 6.79008 196.966 6.89753 197.187C7.04081 197.445 8.25865 197.15 10.4078 196.376C12.1987 195.712 13.7031 195.085 13.8106 194.975C13.9538 194.827 13.6673 192.615 12.9151 188.338C12.6285 186.606 12.6644 186.532 13.5598 186.163C14.0613 185.942 14.7777 185.647 15.1 185.463C16.5328 184.688 16.9626 185.094 18.7894 188.818C19.7565 190.845 20.7236 192.504 20.9385 192.504C21.4758 192.468 25.0219 191.177 25.3084 190.882C25.4159 190.772 25.7382 190.661 25.989 190.661C26.2397 190.661 26.8845 190.477 27.3859 190.292L28.353 189.924L26.8128 187.048C25.989 185.499 24.8786 183.361 24.3413 182.366C22.7653 179.416 12.8793 160.798 11.7331 158.586C8.40193 152.281 8.50938 152.465 7.50645 153.055ZM11.8047 174.734C12.5927 176.43 13.13 177.978 13.0226 178.163C12.9151 178.347 12.4495 178.494 11.9838 178.494C11.3033 178.494 11.0525 178.236 10.9092 177.462C10.8018 176.909 10.5511 175.951 10.4078 175.361C10.2287 174.734 9.97795 173.407 9.8705 172.411C9.58395 170.162 9.83468 170.494 11.8047 174.734Z" fill="black" fill-opacity="0.63"/>
<path d="M62.7749 188.928C61.5213 189.555 60.5183 190.292 60.5183 190.55C60.5183 191.325 65.4255 196.412 68.3268 198.661C73.4489 202.643 82.6186 206.588 95.4417 210.386C96.6237 210.717 97.9848 211.16 98.4863 211.307C98.9878 211.455 100.349 211.897 101.531 212.229C102.713 212.561 105.399 213.409 107.548 214.109C109.662 214.81 111.668 215.363 112.026 215.363C112.384 215.363 112.814 215.51 112.993 215.695C113.208 215.842 114.891 216.285 116.754 216.653C118.617 216.985 120.622 217.427 121.195 217.612C122.27 217.944 126.676 218.091 126.353 217.759C126.21 217.612 121.339 216.248 117.112 215.178C116.611 215.031 115.894 214.81 115.5 214.625C115.106 214.478 113.817 214.036 112.635 213.704C111.453 213.372 110.163 212.966 109.769 212.782C109.375 212.635 108.014 212.192 106.725 211.86C105.435 211.529 103.931 211.086 103.322 210.902C102.749 210.717 100.815 210.164 99.0236 209.611C97.2685 209.095 95.4775 208.505 95.0835 208.358C94.6895 208.173 93.2568 207.694 91.8598 207.215C87.7765 205.925 87.0243 205.63 87.0243 205.335C87.0243 205.15 86.7736 205.04 86.4512 205.04C85.699 205.04 81.1142 202.643 77.7114 200.468C73.1624 197.555 70.4402 194.79 66.1061 188.67C65.7479 188.154 65.3181 187.748 65.2106 187.748C65.1032 187.785 63.9928 188.301 62.7749 188.928Z" fill="#91B722"/>
<path d="M168.62 204.192C168.87 204.302 169.193 204.265 169.3 204.155C169.443 204.044 169.229 203.934 168.835 203.97C168.441 203.97 168.333 204.081 168.62 204.192Z" fill="#91B722"/>
<path d="M165.897 204.745C165.647 205.003 165.468 205.371 165.468 205.556C165.468 205.777 165.682 205.703 165.933 205.371C166.184 205.04 166.614 204.708 166.9 204.56C167.366 204.376 167.366 204.339 166.9 204.339C166.578 204.302 166.148 204.487 165.897 204.745Z" fill="#91B722"/>
<path d="M163.498 205.777C163.39 205.961 163.462 206.146 163.641 206.146C163.856 206.146 164.035 205.961 164.035 205.777C164.035 205.556 163.963 205.408 163.892 205.408C163.784 205.408 163.605 205.556 163.498 205.777Z" fill="#91B722"/>
<path d="M171.199 205.961C171.593 206.441 171.557 206.478 170.984 206.256C170.375 206.035 170.375 206.072 170.805 206.625C171.234 207.178 171.199 207.252 170.697 207.252C170.339 207.252 170.124 207.584 170.124 208.173C170.124 208.69 170.303 209.095 170.482 209.095C170.697 209.095 170.84 209.353 170.84 209.648C170.84 209.943 171.019 210.201 171.199 210.201C171.413 210.201 171.593 209.501 171.628 208.616L171.664 207.067L171.915 208.726C172.13 210.091 172.166 210.164 172.202 209.243C172.309 207.436 171.879 205.851 171.27 205.593C170.84 205.445 170.805 205.482 171.199 205.961Z" fill="#91B722"/>
<path d="M160.739 207.141C160.99 207.252 161.313 207.215 161.42 207.104C161.563 206.994 161.348 206.883 160.954 206.92C160.56 206.92 160.453 207.031 160.739 207.141Z" fill="#91B722"/>
<path d="M149.636 210.828C149.886 210.939 150.209 210.902 150.316 210.791C150.459 210.681 150.245 210.57 149.851 210.607C149.457 210.607 149.349 210.717 149.636 210.828Z" fill="#91B722"/>
<path d="M170.303 212.155C170.16 212.524 170.124 212.93 170.267 213.04C170.625 213.409 170.912 212.893 170.733 212.155C170.59 211.529 170.59 211.529 170.303 212.155Z" fill="#91B722"/>
<path d="M169.229 222.736C169.336 222.921 169.515 223.105 169.623 223.105C169.694 223.105 169.766 222.921 169.766 222.736C169.766 222.515 169.587 222.368 169.372 222.368C169.193 222.368 169.121 222.515 169.229 222.736Z" fill="#91B722"/>
<path d="M168.799 238.295C168.333 238.516 167.975 238.848 167.975 239.032C167.975 239.512 168.333 239.401 169.3 238.59C170.303 237.779 170.052 237.668 168.799 238.295Z" fill="#91B722"/>
<path d="M166.721 239.327C166.614 239.512 166.757 239.696 167.044 239.696C167.366 239.696 167.617 239.512 167.617 239.327C167.617 239.106 167.473 238.959 167.294 238.959C167.079 238.959 166.829 239.106 166.721 239.327Z" fill="#91B722"/>
<path d="M164.393 240.028C163.748 240.212 163.641 240.36 163.999 240.581C164.286 240.765 164.68 240.655 165.038 240.286C165.36 239.954 165.539 239.696 165.468 239.733C165.36 239.77 164.894 239.88 164.393 240.028Z" fill="#91B722"/>
<path d="M166.9 241.171C166.9 241.355 167.151 241.539 167.473 241.539C167.76 241.539 167.903 241.355 167.796 241.171C167.688 240.949 167.438 240.802 167.223 240.802C167.044 240.802 166.9 240.949 166.9 241.171Z" fill="#91B722"/>
</svg>
